<svg width="32" height="32" viewBox="0 0 32 32" fill="none" xmlns="http://www.w3.org/2000/svg">
<path opacity="0.4" d="M14.4375 11.5H12.5625C12.4133 11.5 12.2702 11.5593 12.1648 11.6648C12.0593 11.7702 12 11.9133 12 12.0625V13.9375C12 14.0867 12.0593 14.2298 12.1648 14.3352C12.2702 14.4407 12.4133 14.5 12.5625 14.5H14.4375C14.5867 14.5 14.7298 14.4407 14.8352 14.3352C14.9407 14.2298 15 14.0867 15 13.9375V12.0625C15 11.9133 14.9407 11.7702 14.8352 11.6648C14.7298 11.5593 14.5867 11.5 14.4375 11.5ZM14.4375 16H12.5625C12.4133 16 12.2702 16.0593 12.1648 16.1648C12.0593 16.2702 12 16.4133 12 16.5625V18.4375C12 18.5867 12.0593 18.7298 12.1648 18.8352C12.2702 18.9407 12.4133 19 12.5625 19H14.4375C14.5867 19 14.7298 18.9407 14.8352 18.8352C14.9407 18.7298 15 18.5867 15 18.4375V16.5625C15 16.4133 14.9407 16.2702 14.8352 16.1648C14.7298 16.0593 14.5867 16 14.4375 16ZM14.4375 7H12.5625C12.4133 7 12.2702 7.05926 12.1648 7.16475C12.0593 7.27024 12 7.41332 12 7.5625V9.4375C12 9.58668 12.0593 9.72976 12.1648 9.83525C12.2702 9.94074 12.4133 10 12.5625 10H14.4375C14.5867 10 14.7298 9.94074 14.8352 9.83525C14.9407 9.72976 15 9.58668 15 9.4375V7.5625C15 7.41332 14.9407 7.27024 14.8352 7.16475C14.7298 7.05926 14.5867 7 14.4375 7V7ZM20.4375 7H18.5625C18.4133 7 18.2702 7.05926 18.1648 7.16475C18.0593 7.27024 18 7.41332 18 7.5625V9.4375C18 9.58668 18.0593 9.72976 18.1648 9.83525C18.2702 9.94074 18.4133 10 18.5625 10H20.4375C20.5867 10 20.7298 9.94074 20.8352 9.83525C20.9407 9.72976 21 9.58668 21 9.4375V7.5625C21 7.41332 20.9407 7.27024 20.8352 7.16475C20.7298 7.05926 20.5867 7 20.4375 7V7ZM20.4375 11.5H18.5625C18.4133 11.5 18.2702 11.5593 18.1648 11.6648C18.0593 11.7702 18 11.9133 18 12.0625V13.9375C18 14.0867 18.0593 14.2298 18.1648 14.3352C18.2702 14.4407 18.4133 14.5 18.5625 14.5H20.4375C20.5867 14.5 20.7298 14.4407 20.8352 14.3352C20.9407 14.2298 21 14.0867 21 13.9375V12.0625C21 11.9133 20.9407 11.7702 20.8352 11.6648C20.7298 11.5593 20.5867 11.5 20.4375 11.5ZM20.4375 16H18.5625C18.4133 16 18.2702 16.0593 18.1648 16.1648C18.0593 16.2702 18 16.4133 18 16.5625V18.4375C18 18.5867 18.0593 18.7298 18.1648 18.8352C18.2702 18.9407 18.4133 19 18.5625 19H20.4375C20.5867 19 20.7298 18.9407 20.8352 18.8352C20.9407 18.7298 21 18.5867 21 18.4375V16.5625C21 16.4133 20.9407 16.2702 20.8352 16.1648C20.7298 16.0593 20.5867 16 20.4375 16Z" fill="#FFB401"/>
<path d="M26.4375 26.5H25.5V5.125C25.5 4.82663 25.3815 4.54048 25.1705 4.3295C24.9595 4.11853 24.6734 4 24.375 4H8.625C8.32663 4 8.04048 4.11853 7.8295 4.3295C7.61853 4.54048 7.5 4.82663 7.5 5.125V26.5H6.5625C6.41332 26.5 6.27024 26.5593 6.16475 26.6648C6.05926 26.7702 6 26.9133 6 27.0625V28H27V27.0625C27 26.9133 26.9407 26.7702 26.8352 26.6648C26.7298 26.5593 26.5867 26.5 26.4375 26.5V26.5ZM12 7.5625C12 7.41332 12.0593 7.27024 12.1648 7.16475C12.2702 7.05926 12.4133 7 12.5625 7H14.4375C14.5867 7 14.7298 7.05926 14.8352 7.16475C14.9407 7.27024 15 7.41332 15 7.5625V9.4375C15 9.58668 14.9407 9.72976 14.8352 9.83525C14.7298 9.94074 14.5867 10 14.4375 10H12.5625C12.4133 10 12.2702 9.94074 12.1648 9.83525C12.0593 9.72976 12 9.58668 12 9.4375V7.5625ZM12 12.0625C12 11.9133 12.0593 11.7702 12.1648 11.6648C12.2702 11.5593 12.4133 11.5 12.5625 11.5H14.4375C14.5867 11.5 14.7298 11.5593 14.8352 11.6648C14.9407 11.7702 15 11.9133 15 12.0625V13.9375C15 14.0867 14.9407 14.2298 14.8352 14.3352C14.7298 14.4407 14.5867 14.5 14.4375 14.5H12.5625C12.4133 14.5 12.2702 14.4407 12.1648 14.3352C12.0593 14.2298 12 14.0867 12 13.9375V12.0625ZM14.4375 19H12.5625C12.4133 19 12.2702 18.9407 12.1648 18.8352C12.0593 18.7298 12 18.5867 12 18.4375V16.5625C12 16.4133 12.0593 16.2702 12.1648 16.1648C12.2702 16.0593 12.4133 16 12.5625 16H14.4375C14.5867 16 14.7298 16.0593 14.8352 16.1648C14.9407 16.2702 15 16.4133 15 16.5625V18.4375C15 18.5867 14.9407 18.7298 14.8352 18.8352C14.7298 18.9407 14.5867 19 14.4375 19ZM18 26.5H15V22.5625C15 22.4133 15.0593 22.2702 15.1648 22.1648C15.2702 22.0593 15.4133 22 15.5625 22H17.4375C17.5867 22 17.7298 22.0593 17.8352 22.1648C17.9407 22.2702 18 22.4133 18 22.5625V26.5ZM21 18.4375C21 18.5867 20.9407 18.7298 20.8352 18.8352C20.7298 18.9407 20.5867 19 20.4375 19H18.5625C18.4133 19 18.2702 18.9407 18.1648 18.8352C18.0593 18.7298 18 18.5867 18 18.4375V16.5625C18 16.4133 18.0593 16.2702 18.1648 16.1648C18.2702 16.0593 18.4133 16 18.5625 16H20.4375C20.5867 16 20.7298 16.0593 20.8352 16.1648C20.9407 16.2702 21 16.4133 21 16.5625V18.4375ZM21 13.9375C21 14.0867 20.9407 14.2298 20.8352 14.3352C20.7298 14.4407 20.5867 14.5 20.4375 14.5H18.5625C18.4133 14.5 18.2702 14.4407 18.1648 14.3352C18.0593 14.2298 18 14.0867 18 13.9375V12.0625C18 11.9133 18.0593 11.7702 18.1648 11.6648C18.2702 11.5593 18.4133 11.5 18.5625 11.5H20.4375C20.5867 11.5 20.7298 11.5593 20.8352 11.6648C20.9407 11.7702 21 11.9133 21 12.0625V13.9375ZM21 9.4375C21 9.58668 20.9407 9.72976 20.8352 9.83525C20.7298 9.94074 20.5867 10 20.4375 10H18.5625C18.4133 10 18.2702 9.94074 18.1648 9.83525C18.0593 9.72976 18 9.58668 18 9.4375V7.5625C18 7.41332 18.0593 7.27024 18.1648 7.16475C18.2702 7.05926 18.4133 7 18.5625 7H20.4375C20.5867 7 20.7298 7.05926 20.8352 7.16475C20.9407 7.27024 21 7.41332 21 7.5625V9.4375Z" fill="#E74C3C"/>
</svg>
