<svg width="32" height="32" viewBox="0 0 32 32" fill="none" xmlns="http://www.w3.org/2000/svg">
<path opacity="0.4" d="M14.2506 24.2198L15.1426 20.4286L13.4283 17.4286H18.5711L16.8569 20.4286L17.7488 24.2198L15.9997 27.7143L14.2506 24.2198ZM15.9997 15.7143C17.3559 15.7143 18.6817 15.3121 19.8093 14.5587C20.937 13.8052 21.8159 12.7342 22.3349 11.4813C22.8539 10.2283 22.9897 8.84954 22.7251 7.51938C22.4605 6.18923 21.8074 4.9674 20.8485 4.00841C19.8895 3.04943 18.6676 2.39635 17.3375 2.13176C16.0073 1.86718 14.6286 2.00297 13.3756 2.52197C12.1226 3.04097 11.0517 3.91987 10.2982 5.04752C9.54474 6.17517 9.14258 7.50093 9.14258 8.85715C9.14258 10.6758 9.86502 12.4199 11.151 13.7059C12.437 14.9918 14.1811 15.7143 15.9997 15.7143Z" fill="#FFB401"/>
<path d="M21.1321 17.4607L16 27.7143L10.8679 17.4607C7.04821 17.6428 4 20.766 4 24.6285V26.8571C4 27.5391 4.27092 28.1932 4.75315 28.6754C5.23539 29.1576 5.88944 29.4285 6.57143 29.4285H25.4286C26.1106 29.4285 26.7646 29.1576 27.2468 28.6754C27.7291 28.1932 28 27.5391 28 26.8571V24.6285C28 20.766 24.9518 17.6428 21.1321 17.4607V17.4607Z" fill="#E74C3C"/>
</svg>
