<svg width="32" height="32" viewBox="0 0 32 32" fill="none" xmlns="http://www.w3.org/2000/svg">
<path opacity="0.4" d="M16 4C9.37097 4 4 9.37097 4 16C4 22.629 9.37097 28 16 28C22.629 28 28 22.629 28 16C28 9.37097 22.629 4 16 4ZM20.4753 19.1452L19.5076 20.3548C19.4441 20.4342 19.3655 20.5004 19.2765 20.5494C19.1874 20.5985 19.0896 20.6295 18.9885 20.6407C18.8875 20.6519 18.7852 20.6432 18.6875 20.6149C18.5899 20.5866 18.4987 20.5393 18.4194 20.4758L15.1774 18.07C14.9509 17.8886 14.7681 17.6587 14.6424 17.3971C14.5168 17.1355 14.4516 16.849 14.4516 16.5589V9.03226C14.4516 8.82693 14.5332 8.63001 14.6784 8.48482C14.8236 8.33963 15.0205 8.25806 15.2258 8.25806H16.7742C16.9795 8.25806 17.1764 8.33963 17.3216 8.48482C17.4668 8.63001 17.5484 8.82693 17.5484 9.03226V16L20.3548 18.0565C20.4343 18.12 20.5004 18.1986 20.5495 18.2877C20.5985 18.3768 20.6295 18.4747 20.6407 18.5758C20.6519 18.6769 20.643 18.7793 20.6147 18.877C20.5863 18.9746 20.5389 19.0658 20.4753 19.1452Z" fill="#FFB401"/>
<path d="M20.4749 19.1452L19.5071 20.3548C19.4436 20.4342 19.3651 20.5003 19.276 20.5494C19.187 20.5984 19.0891 20.6295 18.9881 20.6407C18.887 20.6519 18.7848 20.6432 18.6871 20.6149C18.5894 20.5866 18.4983 20.5393 18.4189 20.4758L15.177 18.07C14.9505 17.8886 14.7676 17.6587 14.642 17.3971C14.5163 17.1355 14.4511 16.849 14.4512 16.5589V9.03225C14.4512 8.82692 14.5327 8.63 14.6779 8.48481C14.8231 8.33962 15.02 8.25806 15.2254 8.25806H16.7738C16.9791 8.25806 17.176 8.33962 17.3212 8.48481C17.4664 8.63 17.5479 8.82692 17.5479 9.03225V16L20.3544 18.0564C20.4338 18.12 20.5 18.1986 20.549 18.2877C20.5981 18.3768 20.6291 18.4747 20.6403 18.5758C20.6514 18.6769 20.6426 18.7793 20.6142 18.8769C20.5858 18.9746 20.5385 19.0658 20.4749 19.1452Z" fill="#E74C3C"/>
</svg>
