<svg width="32" height="32" viewBox="0 0 32 32" fill="none" xmlns="http://www.w3.org/2000/svg">
<path opacity="0.4" d="M24.1632 15.2975C24.373 14.752 24.4469 14.1637 24.3786 13.5832C24.3103 13.0028 24.1018 12.4477 23.7712 11.9658C23.4406 11.4839 22.9977 11.0896 22.4807 10.817C21.9638 10.5444 21.3883 10.4016 20.8039 10.4009C20.0922 10.4003 19.3964 10.6117 18.8055 11.0083C18.1467 9.86267 17.128 8.96667 15.9076 8.45945C14.6873 7.95222 13.3336 7.86216 12.0568 8.20326C10.7801 8.54436 9.65166 9.29753 8.84688 10.3458C8.04211 11.394 7.606 12.6787 7.60629 14.0002C7.60629 14.1015 7.61004 14.2027 7.61379 14.3039C6.41002 14.7257 5.39445 15.56 4.74708 16.659C4.0997 17.7581 3.86234 19.0508 4.07706 20.3081C4.29178 21.5654 4.94471 22.7061 5.92013 23.528C6.89554 24.3499 8.13045 24.7999 9.40596 24.7982H23.2034C24.3923 24.7976 25.5386 24.3557 26.4202 23.5582C27.3019 22.7607 27.8562 21.6643 27.9757 20.4815C28.0952 19.2987 27.7714 18.1136 27.067 17.1559C26.3627 16.1981 25.3279 15.5359 24.1632 15.2975V15.2975ZM18.918 17.6858L18.513 18.0907C18.4276 18.1758 18.3261 18.243 18.2143 18.2882C18.1026 18.3335 17.9829 18.3559 17.8623 18.3541C17.7418 18.3524 17.6228 18.3265 17.5124 18.2781C17.402 18.2296 17.3024 18.1595 17.2195 18.072L16.0047 16.7785V21.4989C16.005 21.6171 15.982 21.7343 15.9369 21.8436C15.8917 21.9529 15.8255 22.0522 15.7419 22.1358C15.6582 22.2194 15.5589 22.2857 15.4496 22.3308C15.3403 22.3759 15.2232 22.399 15.1049 22.3987H14.505C14.3868 22.399 14.2696 22.3759 14.1603 22.3308C14.051 22.2857 13.9517 22.2194 13.8681 22.1358C13.7845 22.0522 13.7182 21.9529 13.6731 21.8436C13.628 21.7343 13.6049 21.6171 13.6052 21.4989V16.7785L12.3904 18.072C12.3078 18.16 12.2083 18.2304 12.0978 18.2791C11.9874 18.3279 11.8683 18.3539 11.7476 18.3556C11.6269 18.3574 11.5071 18.3348 11.3953 18.2893C11.2836 18.2438 11.1821 18.1763 11.0969 18.0907L10.692 17.6858C10.6082 17.6025 10.5417 17.5035 10.4964 17.3944C10.451 17.2854 10.4276 17.1684 10.4276 17.0503C10.4276 16.9322 10.451 16.8152 10.4964 16.7062C10.5417 16.5971 10.6082 16.4981 10.692 16.4148L14.1676 12.9392C14.2509 12.8554 14.3499 12.7889 14.4589 12.7436C14.568 12.6982 14.685 12.6748 14.8031 12.6748C14.9212 12.6748 15.0382 12.6982 15.1472 12.7436C15.2563 12.7889 15.3553 12.8554 15.4386 12.9392L18.9142 16.4148C19.083 16.583 19.1782 16.8113 19.1789 17.0495C19.1796 17.2878 19.0857 17.5166 18.918 17.6858Z" fill="#FFB401"/>
<path d="M18.9181 17.6859L18.5131 18.0908C18.4277 18.1759 18.3262 18.2431 18.2144 18.2883C18.1027 18.3336 17.983 18.356 17.8624 18.3542C17.7419 18.3525 17.6229 18.3266 17.5125 18.2782C17.4021 18.2297 17.3025 18.1596 17.2196 18.0721L16.0048 16.7786V21.4989C16.0051 21.6172 15.9821 21.7343 15.937 21.8436C15.8918 21.9529 15.8256 22.0523 15.742 22.1359C15.6583 22.2195 15.559 22.2858 15.4497 22.3309C15.3404 22.376 15.2233 22.3991 15.105 22.3988H14.5051C14.3869 22.3991 14.2697 22.376 14.1604 22.3309C14.0511 22.2858 13.9518 22.2195 13.8682 22.1359C13.7846 22.0523 13.7183 21.9529 13.6732 21.8436C13.6281 21.7343 13.605 21.6172 13.6053 21.4989V16.7786L12.3905 18.0721C12.3079 18.16 12.2084 18.2305 12.0979 18.2792C11.9875 18.3279 11.8684 18.3539 11.7477 18.3557C11.627 18.3574 11.5072 18.3349 11.3954 18.2894C11.2837 18.2439 11.1822 18.1764 11.097 18.0908L10.6921 17.6859C10.6083 17.6026 10.5418 17.5036 10.4965 17.3945C10.4511 17.2855 10.4277 17.1685 10.4277 17.0504C10.4277 16.9323 10.4511 16.8153 10.4965 16.7062C10.5418 16.5972 10.6083 16.4982 10.6921 16.4149L14.1677 12.9393C14.251 12.8555 14.35 12.789 14.459 12.7436C14.5681 12.6983 14.6851 12.6749 14.8032 12.6749C14.9213 12.6749 15.0383 12.6983 15.1473 12.7436C15.2564 12.789 15.3554 12.8555 15.4387 12.9393L18.9143 16.4149C19.0831 16.5831 19.1783 16.8113 19.179 17.0496C19.1797 17.2879 19.0858 17.5167 18.9181 17.6859V17.6859Z" fill="#E74C3C"/>
</svg>
