<svg width="32" height="32" viewBox="0 0 32 32" fill="none" xmlns="http://www.w3.org/2000/svg">
<path opacity="0.4" d="M16.1563 17.7307L12.7217 21.1586L3.42435 11.8426C3.15264 11.5709 3 11.2023 3 10.8181C3 10.4338 3.15264 10.0653 3.42435 9.79354L4.79179 8.42308C5.06272 8.15219 5.43016 8 5.81329 8C6.19642 8 6.56386 8.15219 6.83479 8.42308L16.1563 17.7307Z" fill="#FFB401"/>
<path d="M28.8889 11.845L17.1767 23.5772C16.9056 23.8479 16.5382 24 16.1551 24C15.7721 24 15.4047 23.8479 15.1336 23.5772L12.7188 21.1623L25.4779 8.42369C25.7488 8.1528 26.1162 8.00061 26.4994 8.00061C26.8825 8.00061 27.2499 8.1528 27.5209 8.42369L28.8889 9.79596C29.1606 10.0677 29.3133 10.4362 29.3133 10.8205C29.3133 11.2047 29.1606 11.5733 28.8889 11.845V11.845Z" fill="#E74C3C"/>
</svg>
