<svg width="32" height="32" viewBox="0 0 32 32" fill="none" xmlns="http://www.w3.org/2000/svg">
<path opacity="0.4" d="M13.125 14.5H9.375V11.125C9.375 7.19687 12.5719 4 16.5 4C20.4281 4 23.625 7.19687 23.625 11.125V14.5H19.875V11.125C19.875 10.2299 19.5194 9.37145 18.8865 8.73851C18.2535 8.10558 17.3951 7.75 16.5 7.75C15.6049 7.75 14.7465 8.10558 14.1135 8.73851C13.4806 9.37145 13.125 10.2299 13.125 11.125V14.5Z" fill="#FFB401"/>
<path d="M24.75 14.5H8.25C7.65326 14.5 7.08097 14.7371 6.65901 15.159C6.23705 15.581 6 16.1533 6 16.75V25.75C6 26.3467 6.23705 26.919 6.65901 27.341C7.08097 27.7629 7.65326 28 8.25 28H24.75C25.3467 28 25.919 27.7629 26.341 27.341C26.7629 26.919 27 26.3467 27 25.75V16.75C27 16.1533 26.7629 15.581 26.341 15.159C25.919 14.7371 25.3467 14.5 24.75 14.5V14.5ZM18.375 22.3281C18.375 22.8254 18.1775 23.3023 17.8258 23.654C17.4742 24.0056 16.9973 24.2031 16.5 24.2031C16.0027 24.2031 15.5258 24.0056 15.1742 23.654C14.8225 23.3023 14.625 22.8254 14.625 22.3281V20.0781C14.625 19.5808 14.8225 19.1039 15.1742 18.7523C15.5258 18.4007 16.0027 18.2031 16.5 18.2031C16.9973 18.2031 17.4742 18.4007 17.8258 18.7523C18.1775 19.1039 18.375 19.5808 18.375 20.0781V22.3281Z" fill="#E74C3C"/>
</svg>
