<svg width="32" height="32" viewBox="0 0 32 32" fill="none" xmlns="http://www.w3.org/2000/svg">
<path opacity="0.4" d="M16 5C9.37188 5 4 9.36406 4 14.75C4 17.075 5.00313 19.2031 6.67188 20.8766C6.08594 23.2391 4.12656 25.3438 4.10313 25.3672C4.05269 25.4208 4.01912 25.488 4.00662 25.5605C3.99412 25.633 4.00323 25.7076 4.03281 25.775C4.06104 25.8423 4.10866 25.8996 4.16961 25.9397C4.23055 25.9797 4.30206 26.0007 4.375 26C7.48281 26 9.8125 24.5094 10.9656 23.5906C12.5754 24.194 14.2808 24.502 16 24.5C22.6281 24.5 28 20.1359 28 14.75C28 9.36406 22.6281 5 16 5ZM17.5 17.375C17.5 17.4745 17.4605 17.5698 17.3902 17.6402C17.3198 17.7105 17.2245 17.75 17.125 17.75H10.375C10.2755 17.75 10.1802 17.7105 10.1098 17.6402C10.0395 17.5698 10 17.4745 10 17.375V16.625C10 16.5255 10.0395 16.4302 10.1098 16.3598C10.1802 16.2895 10.2755 16.25 10.375 16.25H17.125C17.2245 16.25 17.3198 16.2895 17.3902 16.3598C17.4605 16.4302 17.5 16.5255 17.5 16.625V17.375ZM22 12.875C22 12.9745 21.9605 13.0698 21.8902 13.1402C21.8198 13.2105 21.7245 13.25 21.625 13.25H10.375C10.2755 13.25 10.1802 13.2105 10.1098 13.1402C10.0395 13.0698 10 12.9745 10 12.875V12.125C10 12.0255 10.0395 11.9302 10.1098 11.8598C10.1802 11.7895 10.2755 11.75 10.375 11.75H21.625C21.7245 11.75 21.8198 11.7895 21.8902 11.8598C21.9605 11.9302 22 12.0255 22 12.125V12.875Z" fill="#FFB401"/>
<path d="M21.625 11.75H10.375C10.2755 11.75 10.1802 11.7895 10.1098 11.8598C10.0395 11.9302 10 12.0255 10 12.125V12.875C10 12.9745 10.0395 13.0698 10.1098 13.1402C10.1802 13.2105 10.2755 13.25 10.375 13.25H21.625C21.7245 13.25 21.8198 13.2105 21.8902 13.1402C21.9605 13.0698 22 12.9745 22 12.875V12.125C22 12.0255 21.9605 11.9302 21.8902 11.8598C21.8198 11.7895 21.7245 11.75 21.625 11.75ZM17.125 16.25H10.375C10.2755 16.25 10.1802 16.2895 10.1098 16.3598C10.0395 16.4302 10 16.5255 10 16.625V17.375C10 17.4745 10.0395 17.5698 10.1098 17.6402C10.1802 17.7105 10.2755 17.75 10.375 17.75H17.125C17.2245 17.75 17.3198 17.7105 17.3902 17.6402C17.4605 17.5698 17.5 17.4745 17.5 17.375V16.625C17.5 16.5255 17.4605 16.4302 17.3902 16.3598C17.3198 16.2895 17.2245 16.25 17.125 16.25Z" fill="#E74C3C"/>
</svg>
