<svg width="32" height="32" viewBox="0 0 32 32" fill="none" xmlns="http://www.w3.org/2000/svg">
<path opacity="0.4" d="M25 6.25V28L16 22.75L7 28V6.25C7 5.65326 7.23705 5.08097 7.65901 4.65901C8.08097 4.23705 8.65326 4 9.25 4H10.75V19.2864C10.75 19.4143 10.7827 19.54 10.8449 19.6517C10.9072 19.7634 10.997 19.8573 11.1058 19.9245C11.2146 19.9917 11.3387 20.03 11.4665 20.0357C11.5942 20.0414 11.7213 20.0144 11.8356 19.9572L16 17.875L20.1644 19.9572C20.2787 20.0144 20.4058 20.0414 20.5335 20.0357C20.6613 20.03 20.7854 19.9917 20.8942 19.9245C21.003 19.8573 21.0928 19.7634 21.1551 19.6517C21.2173 19.54 21.25 19.4143 21.25 19.2864V4H22.75C23.3467 4 23.919 4.23705 24.341 4.65901C24.7629 5.08097 25 5.65326 25 6.25Z" fill="#FFB401"/>
<path d="M21.25 4V19.2864C21.25 19.4143 21.2173 19.54 21.1551 19.6517C21.0928 19.7634 21.003 19.8573 20.8942 19.9245C20.7854 19.9917 20.6613 20.03 20.5335 20.0357C20.4058 20.0414 20.2787 20.0144 20.1644 19.9572L16 17.875L11.8356 19.9572C11.7213 20.0144 11.5942 20.0414 11.4665 20.0357C11.3387 20.03 11.2146 19.9917 11.1058 19.9245C10.997 19.8573 10.9072 19.7634 10.8449 19.6517C10.7827 19.54 10.75 19.4143 10.75 19.2864V4H21.25Z" fill="#4B7902"/>
</svg>
