<svg width="32" height="32" viewBox="0 0 32 32" fill="none" xmlns="http://www.w3.org/2000/svg">
<path opacity="0.4" d="M14.2861 22.8571C14.2861 23.1602 14.4065 23.4509 14.6209 23.6653C14.8352 23.8796 15.1259 24 15.429 24H16.5718C16.875 24 17.1656 23.8796 17.38 23.6653C17.5943 23.4509 17.7147 23.1602 17.7147 22.8571V17.7143H14.2861V22.8571ZM16.5718 8H15.429C15.1259 8 14.8352 8.12041 14.6209 8.33474C14.4065 8.54906 14.2861 8.83975 14.2861 9.14286V14.2857H17.7147V9.14286C17.7147 8.83975 17.5943 8.54906 17.38 8.33474C17.1656 8.12041 16.875 8 16.5718 8Z" fill="#FFB401"/>
<path d="M24 15.4286V16.5715C24 16.8746 23.8796 17.1653 23.6653 17.3796C23.4509 17.5939 23.1602 17.7143 22.8571 17.7143H9.14286C8.83975 17.7143 8.54906 17.5939 8.33474 17.3796C8.12041 17.1653 8 16.8746 8 16.5715V15.4286C8 15.1255 8.12041 14.8348 8.33474 14.6205C8.54906 14.4062 8.83975 14.2858 9.14286 14.2858H22.8571C23.1602 14.2858 23.4509 14.4062 23.6653 14.6205C23.8796 14.8348 24 15.1255 24 15.4286Z" fill="#E74C3C"/>
</svg>
