<svg width="32" height="32" viewBox="0 0 32 32" fill="none" xmlns="http://www.w3.org/2000/svg">
<path opacity="0.4" d="M22.6728 14.4728L14.7273 6.52725C14.3897 6.18968 13.9319 6.00002 13.4545 6H5.80001C5.32261 6 4.86478 6.18964 4.52721 6.52721C4.18964 6.86478 4 7.32261 4 7.80001V15.4545C4.00002 15.9319 4.18968 16.3897 4.52725 16.7273L12.4728 24.6728C12.8103 25.0104 13.2682 25.2 13.7455 25.2C14.2229 25.2 14.6807 25.0104 15.0183 24.6728L22.6728 17.0183C23.0104 16.6807 23.2 16.2229 23.2 15.7455C23.2 15.2682 23.0104 14.8103 22.6728 14.4728ZM8.20001 12C7.84401 12 7.49599 11.8945 7.19998 11.6967C6.90398 11.4989 6.67326 11.2178 6.53703 10.8888C6.40079 10.5599 6.36514 10.198 6.4346 9.84885C6.50405 9.49968 6.67548 9.17895 6.92722 8.92722C7.17895 8.67548 7.49968 8.50405 7.84885 8.4346C8.19802 8.36514 8.55994 8.40079 8.88885 8.53703C9.21776 8.67326 9.49888 8.90398 9.69667 9.19998C9.89445 9.49599 10 9.84401 10 10.2C10 10.6774 9.81038 11.1352 9.47281 11.4728C9.13525 11.8104 8.67741 12 8.20001 12V12Z" fill="#FFB401"/>
<path d="M27.473 17.0183L19.8185 24.6728C19.4809 25.0104 19.0231 25.2 18.5457 25.2C18.0684 25.2 17.6106 25.0104 17.273 24.6728L17.2595 24.6593L23.7868 18.132C24.1002 17.8186 24.3488 17.4466 24.5184 17.0371C24.688 16.6276 24.7753 16.1888 24.7753 15.7455C24.7753 15.3023 24.688 14.8634 24.5184 14.454C24.3488 14.0445 24.1002 13.6724 23.7868 13.359L16.4277 6H18.2547C18.7321 6.00002 19.1899 6.18968 19.5275 6.52725L27.473 14.4728C27.8106 14.8103 28.0002 15.2682 28.0002 15.7455C28.0002 16.2229 27.8106 16.6807 27.473 17.0183V17.0183Z" fill="#E74C3C"/>
</svg>
