<svg width="32" height="32" viewBox="0 0 32 32" fill="none" xmlns="http://www.w3.org/2000/svg">
<path opacity="0.4" d="M16.0039 4C9.37487 4 4.00391 9.37097 4.00391 16C4.00391 22.629 9.37487 28 16.0039 28C22.6329 28 28.0039 22.629 28.0039 16C28.0039 9.37097 22.6329 4 16.0039 4ZM23.5189 13.4505L14.6157 22.3537C14.4705 22.4988 14.2737 22.5803 14.0684 22.5803C13.8632 22.5803 13.6663 22.4988 13.5212 22.3537L8.48891 17.3215C8.34383 17.1763 8.26233 16.9794 8.26233 16.7742C8.26233 16.569 8.34383 16.3721 8.48891 16.2269L9.58342 15.1319C9.65531 15.06 9.74067 15.003 9.83461 14.9641C9.92855 14.9251 10.0292 14.9051 10.1309 14.9051C10.2326 14.9051 10.3333 14.9251 10.4272 14.9641C10.5212 15.003 10.6065 15.06 10.6784 15.1319L14.0684 18.5219L21.3294 11.261C21.4013 11.1891 21.4866 11.132 21.5806 11.0931C21.6745 11.0542 21.7752 11.0341 21.8769 11.0341C21.9786 11.0341 22.0793 11.0542 22.1732 11.0931C22.2671 11.132 22.3525 11.1891 22.4244 11.261L23.5189 12.356C23.664 12.5011 23.7455 12.698 23.7455 12.9032C23.7455 13.1085 23.664 13.3053 23.5189 13.4505V13.4505Z" fill="#FFB401"/>
<path d="M14.616 22.3537C14.4709 22.4988 14.274 22.5803 14.0688 22.5803C13.8635 22.5803 13.6667 22.4988 13.5215 22.3537L8.48927 17.3215C8.34419 17.1763 8.2627 16.9795 8.2627 16.7742C8.2627 16.569 8.34419 16.3721 8.48927 16.227L9.58379 15.132C9.65568 15.0601 9.74104 15.003 9.83498 14.9641C9.92892 14.9252 10.0296 14.9051 10.1313 14.9051C10.233 14.9051 10.3337 14.9252 10.4276 14.9641C10.5215 15.003 10.6069 15.0601 10.6788 15.132L14.0688 18.522L21.3298 11.261C21.4016 11.1891 21.487 11.132 21.5809 11.0931C21.6749 11.0542 21.7756 11.0342 21.8773 11.0342C21.9789 11.0342 22.0796 11.0542 22.1736 11.0931C22.2675 11.132 22.3529 11.1891 22.4248 11.261L23.5193 12.356C23.6644 12.5012 23.7458 12.698 23.7458 12.9033C23.7458 13.1085 23.6644 13.3053 23.5193 13.4505L14.616 22.3537Z" fill="#E74C3C"/>
</svg>
