<?xml version="1.0" standalone="no"?>
<!DOCTYPE svg PUBLIC "-//W3C//DTD SVG 20010904//EN"
 "http://www.w3.org/TR/2001/REC-SVG-20010904/DTD/svg10.dtd">
<svg version="1.0" xmlns="http://www.w3.org/2000/svg"
 width="24.000000pt" height="24.000000pt" viewBox="0 0 24.000000 24.000000"
 preserveAspectRatio="xMidYMid meet">

<g transform="translate(0.000000,24.000000) scale(0.100000,-0.100000)"
fill="#000000" stroke="none">
<path d="M53 162 c-30 -26 -43 -46 -43 -63 0 -35 31 -62 67 -56 27 4 27 4 2 6
-14 0 -34 10 -44 21 -15 17 -16 24 -7 45 6 14 17 25 23 25 7 0 22 11 35 25 13
14 28 25 34 25 6 0 21 -11 34 -25 13 -14 28 -25 35 -25 6 0 17 -11 23 -25 9
-20 8 -28 -6 -44 -10 -11 -30 -22 -45 -24 -24 -4 -24 -4 5 -6 35 -1 64 24 64
58 0 30 -77 101 -110 100 -14 0 -43 -16 -67 -37z"/>
<path d="M97 122 c-21 -23 -22 -39 -2 -22 13 11 15 6 15 -34 0 -25 5 -46 10
-46 6 0 10 21 10 46 0 40 2 45 15 34 22 -18 19 4 -3 23 -23 21 -25 21 -45 -1z"/>
</g>
</svg>
