<svg width="32" height="32" viewBox="0 0 32 32" fill="none" xmlns="http://www.w3.org/2000/svg">
<path opacity="0.4" d="M7.6 15.2C8.07468 15.2 8.53869 15.0593 8.93337 14.7956C9.32805 14.5318 9.63566 14.157 9.81731 13.7185C9.99896 13.2799 10.0465 12.7974 9.95389 12.3318C9.86128 11.8663 9.6327 11.4386 9.29706 11.103C8.96141 10.7673 8.53377 10.5387 8.06822 10.4461C7.60266 10.3535 7.1201 10.4011 6.68156 10.5827C6.24302 10.7644 5.86819 11.072 5.60447 11.4667C5.34076 11.8613 5.2 12.3254 5.2 12.8C5.2006 13.4364 5.45364 14.0465 5.9036 14.4964C6.35356 14.9464 6.96366 15.1994 7.6 15.2V15.2ZM25.6 16.4H23.2C22.5661 16.3993 21.9579 16.6502 21.5088 17.0975C22.2683 17.5109 22.9194 18.0981 23.4089 18.811C23.8983 19.524 24.2122 20.3426 24.325 21.2H26.8C27.1183 21.2 27.4235 21.0736 27.6485 20.8486C27.8736 20.6235 28 20.3183 28 20V18.8C27.9994 18.1637 27.7464 17.5536 27.2964 17.1036C26.8464 16.6537 26.2363 16.4006 25.6 16.4ZM6.4 16.4C5.76366 16.4006 5.15356 16.6537 4.7036 17.1036C4.25364 17.5536 4.0006 18.1637 4 18.8V20C4 20.3183 4.12643 20.6235 4.35147 20.8486C4.57652 21.0736 4.88174 21.2 5.2 21.2H7.67125C7.78551 20.3426 8.10043 19.5242 8.59042 18.8114C9.08041 18.0985 9.73166 17.5114 10.4913 17.0975C10.0421 16.6502 9.43388 16.3993 8.8 16.4H6.4ZM24.4 15.2C24.8747 15.2 25.3387 15.0593 25.7334 14.7956C26.128 14.5318 26.4357 14.157 26.6173 13.7185C26.799 13.2799 26.8465 12.7974 26.7539 12.3318C26.6613 11.8663 26.4327 11.4386 26.0971 11.103C25.7614 10.7673 25.3338 10.5387 24.8682 10.4461C24.4027 10.3535 23.9201 10.4011 23.4816 10.5827C23.043 10.7644 22.6682 11.072 22.4045 11.4667C22.1408 11.8613 22 12.3254 22 12.8C22.0006 13.4364 22.2536 14.0465 22.7036 14.4964C23.1536 14.9464 23.7637 15.1994 24.4 15.2Z" fill="#FFB401"/>
<path d="M18.8798 17.6H18.5686C17.7685 17.9911 16.8903 18.1962 15.9998 18.2C15.0773 18.2 14.2148 17.975 13.4311 17.6H13.1198C11.9742 17.6003 10.8755 18.0555 10.0654 18.8656C9.25534 19.6757 8.8001 20.7744 8.7998 21.92V23C8.7998 23.4774 8.98945 23.9352 9.32701 24.2728C9.66458 24.6104 10.1224 24.8 10.5998 24.8H21.3998C21.8772 24.8 22.335 24.6104 22.6726 24.2728C23.0102 23.9352 23.1998 23.4774 23.1998 23V21.92C23.1995 20.7744 22.7443 19.6757 21.9342 18.8656C21.1241 18.0555 20.0254 17.6003 18.8798 17.6V17.6ZM15.9998 16.4C16.8305 16.4 17.6425 16.1537 18.3332 15.6922C19.0239 15.2307 19.5622 14.5747 19.8801 13.8073C20.198 13.0398 20.2812 12.1953 20.1191 11.3806C19.957 10.5659 19.557 9.81753 18.9697 9.23015C18.3823 8.64277 17.6339 8.24276 16.8192 8.0807C16.0045 7.91865 15.16 8.00182 14.3925 8.31971C13.6251 8.6376 12.9691 9.17592 12.5076 9.86661C12.0461 10.5573 11.7998 11.3693 11.7998 12.2C11.7995 12.7516 11.9079 13.2979 12.1189 13.8076C12.3299 14.3173 12.6392 14.7804 13.0293 15.1705C13.4194 15.5606 13.8825 15.8699 14.3922 16.0809C14.9019 16.2919 15.4482 16.4003 15.9998 16.4Z" fill="#E74C3C"/>
</svg>
